<svg width="294" height="294" viewBox="0 0 294 294" fill="none" xmlns="http://www.w3.org/2000/svg">
<g clip-path="url(#clip0_710_610)">
<g filter="url(#filter0_d_710_610)">
<circle cx="147.068" cy="147.068" r="100.068" fill="url(#paint0_linear_710_610)"/>
<mask id="mask0_710_610" style="mask-type:alpha" maskUnits="userSpaceOnUse" x="47" y="47" width="201" height="201">
<circle cx="147.068" cy="147.068" r="100.068" fill="#D9D9D9"/>
</mask>
<g mask="url(#mask0_710_610)">
<path d="M165.775 131.191C106.771 96.8784 50.0583 117.281 29.0774 131.578V288.072H307.107V126.168C284.582 141.753 224.779 165.504 165.775 131.191Z" fill="url(#paint1_linear_710_610)"/>
<path d="M149.541 145.064C212.165 108.752 272.357 130.343 294.625 145.473V311.084H-0.461819V139.748C23.4457 156.241 86.9167 181.376 149.541 145.064Z" fill="url(#paint2_linear_710_610)"/>
<path d="M230.396 210.137C158.843 168.718 90.0689 193.345 64.6257 210.604V399.511H401.787V204.074C374.47 222.887 301.95 251.557 230.396 210.137Z" fill="url(#paint3_linear_710_610)"/>
<path fill-rule="evenodd" clip-rule="evenodd" d="M147.068 235.765C196.054 235.765 235.765 196.054 235.765 147.068C235.765 98.0822 196.054 58.3714 147.068 58.3714C98.0822 58.3714 58.3714 98.0822 58.3714 147.068C58.3714 196.054 98.0822 235.765 147.068 235.765ZM147.068 247.136C202.334 247.136 247.136 202.334 247.136 147.068C247.136 91.802 202.334 47 147.068 47C91.802 47 47 91.802 47 147.068C47 202.334 91.802 247.136 147.068 247.136Z" fill="white"/>
</g>
</g>
</g>
<defs>
<filter id="filter0_d_710_610" x="3" y="14" width="288.136" height="288.137" filterUnits="userSpaceOnUse" color-interpolation-filters="sRGB">
<feFlood flood-opacity="0" result="BackgroundImageFix"/>
<feColorMatrix in="SourceAlpha" type="matrix" values="0 0 0 0 0 0 0 0 0 0 0 0 0 0 0 0 0 0 127 0" result="hardAlpha"/>
<feOffset dy="11"/>
<feGaussianBlur stdDeviation="22"/>
<feComposite in2="hardAlpha" operator="out"/>
<feColorMatrix type="matrix" values="0 0 0 0 0 0 0 0 0 0 0 0 0 0 0 0 0 0 0.2 0"/>
<feBlend mode="normal" in2="BackgroundImageFix" result="effect1_dropShadow_710_610"/>
<feBlend mode="normal" in="SourceGraphic" in2="effect1_dropShadow_710_610" result="shape"/>
</filter>
<linearGradient id="paint0_linear_710_610" x1="121.556" y1="76.9104" x2="147.068" y2="247.136" gradientUnits="userSpaceOnUse">
<stop stop-color="#DFDCF2"/>
<stop offset="0.286458" stop-color="white"/>
</linearGradient>
<linearGradient id="paint1_linear_710_610" x1="168.092" y1="112.385" x2="168.092" y2="288.072" gradientUnits="userSpaceOnUse">
<stop stop-color="#3311FF"/>
<stop offset="1"/>
</linearGradient>
<linearGradient id="paint2_linear_710_610" x1="147.082" y1="125.162" x2="147.082" y2="311.084" gradientUnits="userSpaceOnUse">
<stop stop-color="#A12CFF"/>
<stop offset="1"/>
</linearGradient>
<linearGradient id="paint3_linear_710_610" x1="233.206" y1="187.436" x2="233.206" y2="399.511" gradientUnits="userSpaceOnUse">
<stop stop-color="#F606FF"/>
<stop offset="1"/>
</linearGradient>
<clipPath id="clip0_710_610">
<rect width="294" height="294" fill="white"/>
</clipPath>
</defs>
</svg>
